<svg xmlns:mydata="http://www.w3.org/2000/svg" mydata:contrastcolor="ffffff" mydata:template="Default" mydata:presentation="2.5" mydata:layouttype="undefined" mydata:specialfontid="undefined" mydata:id1="001" mydata:id2="440" mydata:companyname="codeblind.ai" mydata:companytagline="" version="1.1" xmlns="http://www.w3.org/2000/svg" xmlns:xlink="http://www.w3.org/1999/xlink" viewBox="0 0 550 470" style="background-color: rgb(217, 231, 240); background-image: radial-gradient(circle closest-side, rgba(255, 255, 255, 0.07) 0%, rgba(255, 255, 255, 0) 100%);"><style style="animation-play-state: running;">#pulse-circle1 {
    transform: scale(0);
    opacity: 0;
    transform-origin: 50% 50%;
    animation: pulse 4s cubic-bezier(.5,.5,0,1) infinite;
}

#pulse-circle2 {
    transform: scale(0);
    opacity: 0;
    transform-origin: 50% 50%;
    animation: pulse 4s 0.75s cubic-bezier(.5,.5,0,1) infinite;
}

#pulse-circle3 {
    transform: scale(0);
    opacity: 0;
    transform-origin: 50% 50%;
    animation: pulse 4s 1.5s cubic-bezier(.5,.5,0,1) infinite;
}

@keyframes pulse {                
    12% {
        opacity: 0.3;
    }
    
    50% {
        transform: scale(1);
    }
    
    100% {                    
        transform: scale(1);
    }                
}</style><g fill="#006298" fill-rule="none" stroke="none" stroke-width="1" stroke-linecap="butt" stroke-linejoin="miter" stroke-miterlimit="10" stroke-dasharray="" stroke-dashoffset="0" font-family="none" font-weight="none" font-size="none" text-anchor="none" style="mix-blend-mode: normal; animation-play-state: running;"><g data-paper-data="{&quot;isGlobalGroup&quot;:true,&quot;bounds&quot;:{&quot;x&quot;:65,&quot;y&quot;:122.57673678015124,&quot;width&quot;:420,&quot;height&quot;:224.84652643969747}}" style="animation-play-state: running;"><g data-paper-data="{&quot;isPrimaryText&quot;:true}" fill-rule="nonzero" style="animation-play-state: running;"><path d="M99.87138,327.87243c-1.20049,6.40261 -6.57411,11.03307 -12.97673,11.03307c-7.14577,0 -12.80523,-6.00245 -12.80523,-13.49122c0,-7.54594 5.65945,-13.60555 12.80523,-13.60555c4.4018,0 8.74643,2.22948 11.8334,6.80278l6.91711,-4.91629c-3.83013,-6.23111 -10.86158,-10.34708 -18.80768,-10.34708c-12.11923,0 -21.83748,9.88975 -21.83748,22.06615c0,12.1764 9.71825,22.00898 21.89465,22.00898c11.31891,0 20.69416,-8.63209 21.95182,-19.55084z" data-paper-data="{&quot;glyphName&quot;:&quot;C&quot;,&quot;glyphIndex&quot;:0,&quot;firstGlyphOfWord&quot;:true,&quot;word&quot;:1}" style="animation-play-state: running;"></path><path d="M134.79992,347.42326c12.1764,0 22.00898,-9.88975 22.00898,-22.06615c0,-12.1764 -9.83258,-22.00898 -22.06615,-22.00898c-12.1764,0 -22.00898,9.83258 -22.00898,22.00898c0,12.1764 9.83258,22.06615 22.06615,22.06615zM134.74275,311.80873c7.20294,0 12.97673,6.05962 12.97673,13.54839c0,7.6031 -5.71662,13.54839 -12.91956,13.54839c-7.31727,0 -12.97673,-5.94528 -12.97673,-13.54839c0,-7.48877 5.65945,-13.54839 12.91956,-13.54839z" data-paper-data="{&quot;glyphName&quot;:&quot;O&quot;,&quot;glyphIndex&quot;:1,&quot;word&quot;:1}" style="animation-play-state: running;"></path><path d="M163.15435,304.09129v42.58881h17.32136c12.23356,0 22.23765,-9.08942 22.23765,-21.32299c0,-12.11923 -10.00408,-21.26582 -22.29481,-21.26582zM172.01511,338.67684v-26.58228h8.40343c7.4316,0 13.20539,5.54512 13.20539,13.26256c0,7.66027 -5.77379,13.31972 -13.14822,13.31972z" data-paper-data="{&quot;glyphName&quot;:&quot;D&quot;,&quot;glyphIndex&quot;:2,&quot;word&quot;:1}" style="animation-play-state: running;"></path><path d="M235.46958,346.6801v-8.00327h-17.55002v-10.63291h16.00653v-8.00327h-16.00653v-7.9461h13.77705v-8.00327h-22.63781v42.58881z" data-paper-data="{&quot;glyphName&quot;:&quot;E&quot;,&quot;glyphIndex&quot;:3,&quot;word&quot;:1}" style="animation-play-state: running;"></path><path d="M256.67824,346.6801c7.83177,0 15.09187,-5.03062 15.09187,-13.71989c0,-4.11597 -1.94365,-7.7746 -5.77379,-10.40425c2.05798,-1.88648 3.02981,-4.2303 3.02981,-7.20294c0,-7.9461 -5.65945,-11.26174 -13.54839,-11.26174h-13.66272v42.58881zM250.67579,338.67684v-10.97591h6.28828c3.65864,0 5.71662,2.11515 5.71662,5.54512c0,3.31564 -2.05798,5.43079 -5.71662,5.43079zM250.67579,319.98349v-7.88893h4.45896c2.45815,0 4.80196,0.68599 4.80196,3.94447c0,1.77215 -0.5145,3.94447 -4.80196,3.94447z" data-paper-data="{&quot;glyphName&quot;:&quot;B&quot;,&quot;glyphIndex&quot;:4,&quot;word&quot;:1}" style="animation-play-state: running;"></path><path d="M278.11556,304.09129v42.58881h26.01062v-8.00327h-17.14986v-34.58555z" data-paper-data="{&quot;glyphName&quot;:&quot;L&quot;,&quot;glyphIndex&quot;:5,&quot;word&quot;:1}" style="animation-play-state: running;"></path><path d="M317.90323,304.09129h-8.86076v42.58881h8.86076z" data-paper-data="{&quot;glyphName&quot;:&quot;I&quot;,&quot;glyphIndex&quot;:6,&quot;word&quot;:1}" style="animation-play-state: running;"></path><path d="M356.31891,328.72992l-30.29808,-25.43895v43.38914h8.86076v-24.46713l30.29808,25.21029v-43.33197h-8.86076z" data-paper-data="{&quot;glyphName&quot;:&quot;N&quot;,&quot;glyphIndex&quot;:7,&quot;word&quot;:1}" style="animation-play-state: running;"></path><path d="M373.29726,304.09129v42.58881h17.32136c12.23356,0 22.23765,-9.08942 22.23765,-21.32299c0,-12.11923 -10.00408,-21.26582 -22.29481,-21.26582zM382.15802,338.67684v-26.58228h8.40343c7.4316,0 13.20539,5.54512 13.20539,13.26256c0,7.66027 -5.77379,13.31972 -13.14822,13.31972z" data-paper-data="{&quot;glyphName&quot;:&quot;D&quot;,&quot;glyphIndex&quot;:8,&quot;word&quot;:1}" style="animation-play-state: running;"></path><path d="M419.94488,338.67684c-2.62964,0 -4.4018,1.94365 -4.4018,4.4018c0,2.34381 1.77215,4.34463 4.4018,4.34463c2.68681,0 4.4018,-2.00082 4.4018,-4.34463c0,-2.45815 -1.77215,-4.4018 -4.4018,-4.4018z" data-paper-data="{&quot;glyphName&quot;:&quot;.&quot;,&quot;glyphIndex&quot;:9,&quot;word&quot;:1}" style="animation-play-state: running;"></path><path d="M462.76235,346.6801h9.66109l-22.52348,-43.33197l-22.46631,43.33197h9.14659l2.74398,-5.71662h20.63699zM449.55696,319.69766l6.51695,13.26256h-12.91956z" data-paper-data="{&quot;glyphName&quot;:&quot;A&quot;,&quot;glyphIndex&quot;:10,&quot;word&quot;:1}" style="animation-play-state: running;"></path><path d="M485,304.09129h-8.86076v42.58881h8.86076z" data-paper-data="{&quot;glyphName&quot;:&quot;I&quot;,&quot;glyphIndex&quot;:11,&quot;lastGlyphOfWord&quot;:true,&quot;word&quot;:1}" style="animation-play-state: running;"></path></g><g data-paper-data="{&quot;fillRule&quot;:&quot;evenodd&quot;,&quot;fillRuleOriginal&quot;:&quot;evenodd&quot;,&quot;isIcon&quot;:true,&quot;iconStyle&quot;:&quot;standalone&quot;,&quot;selectedEffects&quot;:{&quot;container&quot;:&quot;triangle_simple_outline3&quot;,&quot;transformation&quot;:&quot;&quot;,&quot;pattern&quot;:&quot;&quot;},&quot;bounds&quot;:{&quot;x&quot;:188.11393278792346,&quot;y&quot;:122.57673678015124,&quot;width&quot;:173.7721344241531,&quot;height&quot;:151.386419745706},&quot;widthRatioIconToContainer&quot;:0.46864262218011316,&quot;heightRatioIconToContainer&quot;:0.5128464428206175,&quot;relativeBoundsIconToContainer&quot;:{&quot;top&quot;:0.1511909708697078,&quot;left&quot;:0.00000405714571068623},&quot;iconType&quot;:&quot;icon&quot;,&quot;rawIconId&quot;:&quot;22591&quot;,&quot;isDetailed&quot;:false,&quot;blockLetter&quot;:&quot;A&quot;,&quot;suitableAsStandaloneIcon&quot;:true}" fill-rule="evenodd" style="animation-play-state: running;"><path d="M234.32371,219.74241l-0.04153,-0.04153l0.04153,-0.25001c0,-3.80881 1.00086,-8.18687 3.00258,-13.13498c1.25087,-2.75176 2.87717,-5.47664 4.8789,-8.17302c1.05624,-1.44551 2.79411,-3.32182 5.21197,-5.62974c2.50175,-2.11248 4.90658,-3.808 7.21369,-5.08737c2.0571,-1.14012 4.65657,-2.23789 7.7976,-3.29413c2.55793,-0.83392 5.90744,-1.41782 10.04933,-1.75089l1.00086,-0.04153v0.04153l0.08388,-0.04153h2.46021l0.29155,0.04153l0.04153,-0.04153l0.25082,0.04153c3.44641,0 7.6445,0.80622 12.59261,2.41868c2.78026,1.02855 5.53202,2.3633 8.25691,4.00344c1.69552,1.00086 3.66956,2.46021 5.92129,4.37806c2.72489,2.58563 4.53116,4.58653 5.42045,6.00517c2.0856,2.83482 3.7119,5.87894 4.8789,9.13154c1.33475,4.05882 2.00172,7.60297 2.00172,10.63323l0.04071,0.16613h-0.04153l0.04153,0.04153v2.62634l-0.04153,0.04235l0.04153,0.04235c0,2.05629 -0.41696,5.01652 -1.25087,8.88152c-0.77853,2.72407 -1.6263,5.05887 -2.54328,7.00522c-1.00086,1.97403 -2.36248,4.10035 -4.08732,6.37978c-1.11161,1.36244 -2.55793,2.90486 -4.33652,4.62888c-2.86332,2.41868 -5.28119,4.21192 -7.25522,5.37892c-0.86161,0.44465 -1.64014,0.66697 -2.3348,0.66697c-1.86246,0 -3.11334,-0.91779 -3.75262,-2.75257c-0.11157,-0.50002 -0.16694,-0.93164 -0.16694,-1.2924c0,-1.58477 1.39013,-3.0995 4.17039,-4.545c0.86161,-0.41696 2.23707,-1.47401 4.12723,-3.16953c2.41868,-2.39099 4.10035,-4.37806 5.04584,-5.96282c1.08393,-1.66783 1.98707,-3.4057 2.71023,-5.21197c1.00086,-2.83482 1.50089,-4.68425 1.50089,-5.54586l0.41777,-2.66869l-0.08388,-0.04153l0.08388,-0.25082v-0.37543l0.04153,-0.04235l-0.04153,-0.04153l0.04153,-0.16694l0.04153,-1.87631c0,-8.28378 -3.07099,-15.48444 -9.2146,-21.59955c-2.27942,-2.02941 -3.9611,-3.3495 -5.04502,-3.9611c-5.67127,-3.53029 -11.66178,-5.29585 -17.97234,-5.29585h-1.91784l-0.25001,0.04153v-0.04153l-0.04153,0.04153h-0.04235c-2.80713,0 -6.19899,0.65312 -10.17392,1.96019c-2.1133,0.80622 -4.23961,1.86246 -6.37978,3.16953c-1.36244,0.80622 -3.2526,2.3348 -5.67127,4.58653l-1.37628,1.50089c-5.30969,5.92129 -7.96454,12.70418 -7.96454,20.34868l0.04153,0.45849h-0.04235l0.04153,0.04153v0.04153c0,5.44896 2.27942,11.70332 6.83826,18.76472c3.69725,5.50433 6.42212,9.66006 8.17302,12.46801c0.61159,1.02937 1.20852,2.16785 1.79242,3.41954h-0.04153c-3.72493,-1.69552 -7.19985,-3.6834 -10.42476,-5.96282c-2.44636,-1.91784 -4.43343,-3.85116 -5.96282,-5.79587c-1.75089,-2.44636 -3.04411,-4.53116 -3.87803,-6.25518c-1.00086,-1.94634 -1.9325,-4.37806 -2.79411,-7.29757c-0.50002,-1.83477 -0.90314,-3.82184 -1.20934,-5.96201l-0.20848,-2.29327h0.04154l-0.04154,-0.04235l-0.04071,-2.12632v-1.16781l0.04153,-0.04153l-0.04153,-0.04153v-0.04153zM273.97866,193.22244h2.37715l0.04153,0.08388l0.04235,-0.08388c1.86246,0.05538 4.25346,0.44465 7.17216,1.16781c2.52944,0.80622 4.62888,1.68167 6.2959,2.62716c1.55708,0.86161 3.33648,2.16867 5.33819,3.91956c2.50175,2.41868 4.1142,4.23961 4.83655,5.4628c1.36244,1.97403 2.41868,4.07266 3.16953,6.29671c0.61159,1.52857 1.0424,3.73878 1.2924,6.62979v0.04153h-0.04153l0.04153,0.04153v1.54324c0,7.53293 -3.11334,14.26125 -9.34083,20.18172c-2.86332,2.52944 -4.6981,3.8365 -5.50433,3.91956c-0.50002,0.22232 -1.04158,0.33308 -1.6263,0.33308h-0.08306c-1.75171,0 -2.97489,-0.87545 -3.66956,-2.62716l-0.20929,-1.25087c0,-1.83477 1.22318,-3.29413 3.66956,-4.37806c0.77853,-0.39008 1.68167,-1.08474 2.71023,-2.0856c1.64096,-1.72402 2.80795,-3.30797 3.50342,-4.75429c0.63928,-1.11161 1.25087,-2.66788 1.83477,-4.6696c0.33308,-1.64014 0.50002,-2.82179 0.50002,-3.54414h0.04153l-0.04153,-0.0847l0.04153,-0.20848v-2.25173l-0.04153,-0.20848h0.04153l-0.04153,-0.16694c0,-2.02941 -0.7085,-4.47578 -2.12632,-7.3391c-0.69547,-1.27856 -1.71018,-2.64101 -3.04411,-4.08651c-1.41701,-1.44551 -2.6125,-2.44636 -3.58568,-3.00258c-3.94725,-2.52944 -7.88066,-3.79497 -11.80022,-3.79497h-0.12459l-0.04235,-0.08388l-0.04153,0.08388h-0.12541l-0.04153,-0.08388l-0.04153,0.08388h-0.45849l-0.04235,-0.08388l-0.04153,0.08388h-0.75085l-0.25001,0.04153v-0.04153c-1.75089,0.16694 -3.11334,0.38927 -4.08732,0.66697c-4.6696,1.33394 -8.31146,3.53029 -10.92478,6.58826c-1.5017,1.64014 -2.66869,3.37719 -3.5026,5.21197c-1.08393,2.52944 -1.6263,4.90658 -1.6263,7.13063v0.87545l-0.04153,0.04153l0.04153,0.04153v0.08306c0,3.66956 1.39013,7.54758 4.16958,11.6341c7.0614,11.23016 12.49569,20.14019 16.30451,26.72845l-0.04153,0.04153h-0.04235c-4.86505,-0.44465 -8.11764,-0.90314 -9.75697,-1.37547c-6.47669,-10.23012 -10.10471,-15.91524 -10.88325,-17.05373c-3.44723,-5.22663 -5.58739,-9.06313 -6.42131,-11.50949c-0.91779,-2.75176 -1.37628,-5.60206 -1.37628,-8.54844c0,-6.39362 2.09863,-12.25953 6.29671,-17.59691c0.63928,-0.83392 1.95938,-2.15483 3.9611,-3.9611c3.78113,-3.00258 7.90835,-4.98965 12.38413,-5.96282c1.61327,-0.35751 3.5026,-0.60833 5.67127,-0.74678v0.08388zM274.64644,204.31416h1.29322l0.08388,0.08388l0.04153,-0.08388h0.04153l0.04235,0.08388l0.04153,-0.08388c1.22318,0 2.87717,0.29155 4.96278,0.87545c4.22496,1.50089 7.43601,4.28115 9.63237,8.33997c1.22318,2.52944 1.83477,5.00431 1.83477,7.42217v0.25001c0,4.61504 -1.98788,8.79846 -5.96282,12.55108c-1.66783,1.33475 -3.18338,2.00172 -4.545,2.00172c-1.69634,0 -2.96105,-0.90314 -3.79497,-2.71023c-0.13844,-0.38927 -0.22151,-0.79238 -0.25001,-1.20934c0,-1.38932 1.02855,-2.79329 3.08565,-4.21111c1.4732,-1.00086 2.41868,-2.15483 2.83482,-3.46107c0.33389,-0.94549 0.50002,-1.87631 0.50002,-2.79411v-0.16694c0,-2.78026 -1.22318,-5.24047 -3.66956,-7.38064c-1.61164,-1.19549 -3.61417,-1.79324 -6.00435,-1.79324l-0.33308,0.04153v-0.04153l-0.04235,0.04153h-0.08388c-2.19554,0 -4.30884,0.94467 -6.33743,2.83482c-1.64096,1.89015 -2.46021,4.05882 -2.46021,6.50519c0,2.08479 1.43167,5.15659 4.29499,9.21542c7.39448,11.64794 13.0796,20.83485 17.05373,27.56318c-3.55798,0.94467 -6.2959,1.41701 -8.21456,1.41701c-3.66956,-5.33739 -7.97838,-12.1895 -12.9265,-20.55633c-1.69552,-2.83564 -3.58568,-5.769 -5.67046,-8.79927c-1.86246,-2.89101 -2.79492,-5.90744 -2.79492,-9.04847c0,-4.36421 1.59861,-8.2284 4.79582,-11.59175c1.72321,-1.58477 3.29413,-2.71104 4.71194,-3.37719c2.52944,-1.05624 4.21192,-1.58477 5.04502,-1.58477c0.47315,-0.11075 1.39013,-0.22232 2.75257,-0.33308v0.08388zM361.51643,269.09454c0.02505,0.04863 0.04905,0.09784 0.07201,0.14762c0.02243,0.04983 0.04357,0.10019 0.0634,0.15106c0.02035,0.05087 0.03939,0.1022 0.05714,0.15396c0.01722,0.05182 0.0334,0.10399 0.04853,0.15654c0.01514,0.0526 0.02896,0.10553 0.04148,0.15881c0.012,0.05328 0.02296,0.10682 0.03288,0.16061c0.00991,0.0538 0.01852,0.10781 0.02583,0.16203c0.00679,0.05422 0.01252,0.10859 0.01722,0.16312c0.00417,0.05448 0.00731,0.10906 0.00939,0.16375c0.00156,0.05469 0.00209,0.10935 0.00156,0.16398c-0.00104,0.05469 -0.00339,0.10932 -0.00705,0.1639c-0.00365,0.05458 -0.00861,0.10903 -0.01487,0.16335c-0.00626,0.05437 -0.01382,0.10854 -0.02269,0.16249c-0.00887,0.05396 -0.01905,0.10765 -0.03052,0.16108c-0.01148,0.05349 -0.02427,0.10664 -0.03835,0.15944c-0.01409,0.05286 -0.02948,0.1053 -0.04618,0.15732c-0.01722,0.05208 -0.03522,0.10371 -0.05401,0.1549c-0.01931,0.05119 -0.03992,0.10188 -0.06184,0.15208c-0.02191,0.05014 -0.04488,0.09975 -0.06887,0.14879c-0.02401,0.04905 -0.04931,0.0975 -0.07592,0.14535c-0.02661,0.0478 -0.05453,0.09491 -0.08375,0.14135c-0.0287,0.04644 -0.0587,0.09215 -0.09001,0.13713c-0.03078,0.04493 -0.06288,0.0891 -0.09627,0.13251c-0.0334,0.04336 -0.06783,0.08591 -0.10332,0.12766c-0.03548,0.0417 -0.07175,0.0825 -0.1088,0.12241c-0.03757,0.03992 -0.07592,0.0789 -0.11505,0.11694c-0.03913,0.03804 -0.07932,0.07509 -0.12054,0.11114c-0.04122,0.03606 -0.08323,0.07107 -0.12602,0.10504c-0.04279,0.03402 -0.08636,0.06695 -0.13071,0.09878c-0.04488,0.03188 -0.09027,0.06264 -0.13619,0.09228c-0.04592,0.02964 -0.09262,0.05813 -0.1401,0.08547c-0.25359,0.14663 -0.52206,0.2579 -0.80541,0.33382c-0.28334,0.07592 -0.57164,0.11388 -0.86489,0.11388h-167.08879c-0.05469,0 -0.10935,-0.00136 -0.16398,-0.00407c-0.05463,-0.00266 -0.10916,-0.00668 -0.16359,-0.01205c-0.05443,-0.00533 -0.10867,-0.012 -0.16273,-0.02004c-0.05411,-0.00804 -0.10799,-0.0174 -0.16163,-0.0281c-0.05364,-0.01064 -0.107,-0.02262 -0.16006,-0.03593c-0.05302,-0.01325 -0.10569,-0.02784 -0.15803,-0.04376c-0.05234,-0.01587 -0.10425,-0.03301 -0.15576,-0.05143c-0.05151,-0.01842 -0.10251,-0.03809 -0.15302,-0.05901c-0.05056,-0.02092 -0.10055,-0.04308 -0.14997,-0.06645c-0.04946,-0.02338 -0.09831,-0.04795 -0.14652,-0.07373c-0.04821,-0.02583 -0.09577,-0.05278 -0.14268,-0.08086c-0.04691,-0.02813 -0.09312,-0.0574 -0.13862,-0.08782c-0.04545,-0.03037 -0.09014,-0.06184 -0.13407,-0.09439c-0.04394,-0.03262 -0.08703,-0.06624 -0.1293,-0.10089c-0.04227,-0.0347 -0.08367,-0.07042 -0.12421,-0.10716c-0.04054,-0.03674 -0.08015,-0.07444 -0.11882,-0.1131c-0.03866,-0.03866 -0.07636,-0.07827 -0.1131,-0.11882c-0.03674,-0.04049 -0.07243,-0.0819 -0.10708,-0.12421c-0.0347,-0.04227 -0.06835,-0.08537 -0.10097,-0.1293c-0.03256,-0.04394 -0.06403,-0.08863 -0.09439,-0.13407c-0.03042,-0.0455 -0.05966,-0.09171 -0.08774,-0.13862c-0.02813,-0.04686 -0.05508,-0.09442 -0.08086,-0.14268c-0.02578,-0.04821 -0.05038,-0.09705 -0.07381,-0.14652c-0.02338,-0.04941 -0.04553,-0.09938 -0.06645,-0.14989c-0.02092,-0.05056 -0.04059,-0.1016 -0.05901,-0.1531c-0.01842,-0.05145 -0.03556,-0.10334 -0.05143,-0.15568c-0.01592,-0.05234 -0.0305,-0.10504 -0.04376,-0.15811c-0.0133,-0.05307 -0.02528,-0.10642 -0.03593,-0.16006c-0.0107,-0.05364 -0.02006,-0.1075 -0.0281,-0.16155c-0.00798,-0.05411 -0.01467,-0.10838 -0.02004,-0.16281c-0.00538,-0.05443 -0.00939,-0.10896 -0.01205,-0.16359c-0.00271,-0.05463 -0.00407,-0.10929 -0.00407,-0.16398c0,-0.29331 0.03796,-0.58161 0.11388,-0.86489c0.07592,-0.28334 0.1872,-0.552 0.33382,-0.80596l83.54428,-144.70291c0.02734,-0.04738 0.05583,-0.09405 0.08547,-0.14003c0.02964,-0.04597 0.0604,-0.09119 0.09228,-0.13565c0.03183,-0.04446 0.06476,-0.08811 0.09878,-0.13095c0.03397,-0.04284 0.06898,-0.08482 0.10504,-0.12594c0.03606,-0.04111 0.07311,-0.08133 0.11114,-0.12062c0.03804,-0.03929 0.07702,-0.07762 0.11694,-0.11498c0.03992,-0.03741 0.08073,-0.07381 0.12241,-0.10919c0.0417,-0.03538 0.08424,-0.06972 0.12766,-0.103c0.04336,-0.03329 0.08753,-0.06551 0.13251,-0.09666c0.04498,-0.0311 0.09069,-0.06111 0.13713,-0.09001c0.04644,-0.02885 0.09356,-0.05656 0.14135,-0.08312c0.0478,-0.02656 0.09624,-0.05195 0.14535,-0.07616c0.04905,-0.02416 0.09865,-0.04712 0.14879,-0.06887c0.05019,-0.02176 0.10089,-0.04227 0.15208,-0.06152c0.05119,-0.01931 0.10279,-0.03731 0.15482,-0.05401c0.05208,-0.01675 0.10454,-0.03219 0.1574,-0.04634c0.05281,-0.01415 0.10595,-0.027 0.15944,-0.03859c0.05343,-0.01153 0.10713,-0.02176 0.16108,-0.03068c0.05396,-0.00887 0.10809,-0.01644 0.16242,-0.02269c0.05437,-0.00626 0.10885,-0.01116 0.16343,-0.01472c0.05453,-0.0036 0.10914,-0.00585 0.16382,-0.00673c0.05469,-0.00089 0.10937,-0.00044 0.16406,0.00133c0.05463,0.00177 0.10922,0.00491 0.16375,0.00939c0.05453,0.00448 0.1089,0.01028 0.16312,0.01738c0.05422,0.00715 0.10823,0.01563 0.16203,0.02544c0.0538,0.00976 0.10734,0.02084 0.16061,0.03327c0.05328,0.01242 0.10621,0.02614 0.15881,0.04117c0.05255,0.01503 0.10472,0.03133 0.15654,0.04892c0.05177,0.01759 0.10308,0.03642 0.15396,0.05651c0.05087,0.02009 0.1012,0.04143 0.15098,0.06403c0.04983,0.02254 0.09907,0.04631 0.1477,0.07131c0.04868,0.025 0.09669,0.05117 0.14402,0.0785c0.25401,0.14668 0.48473,0.3237 0.69215,0.53107c0.20736,0.20741 0.38439,0.43813 0.53107,0.69215l83.54412,144.70291c0.02766,0.04733 0.05375,0.09533 0.07827,0.14402zM274.99997,132.60202l-77.75615,134.67758h155.51252z" data-paper-data="{&quot;isPathIcon&quot;:true}" style="animation-play-state: running;"></path></g></g></g><circle id="pulse-circle1" cx="50%" cy="50%" r="45%" stroke="#006298" stroke-width="5" fill="none" style="animation-play-state: running;"></circle><circle id="pulse-circle2" cx="50%" cy="50%" r="45%" stroke="#006298" stroke-width="5" fill="none" style="animation-play-state: running;"></circle><circle id="pulse-circle3" cx="50%" cy="50%" r="45%" stroke="#006298" stroke-width="5" fill="none" style="animation-play-state: running;"></circle></svg>